<?xml version="1.0" standalone="no"?>
<!DOCTYPE svg PUBLIC "-//W3C//DTD SVG 20010904//EN"
 "http://www.w3.org/TR/2001/REC-SVG-20010904/DTD/svg10.dtd">
<svg version="1.0" xmlns="http://www.w3.org/2000/svg"
 width="900.000000pt" height="900.000000pt" viewBox="0 0 900.000000 900.000000"
 preserveAspectRatio="xMidYMid meet">

<g transform="translate(0.000000,900.000000) scale(0.100000,-0.100000)"
fill="#000000" stroke="none">
<path d="M2376 7322 c-1305 -2 -1652 -5 -1658 -15 -11 -17 -10 -5625 1 -5631
5 -3 469 -6 1032 -6 l1023 -1 14 28 c28 52 32 63 32 78 0 8 4 23 9 33 5 9 19
44 31 77 12 33 28 73 36 88 8 16 14 36 14 46 0 9 4 21 8 26 5 6 15 30 22 55 8
25 17 50 21 55 4 6 15 33 24 60 9 28 20 60 26 73 5 12 13 32 18 45 5 12 16 40
24 62 36 92 87 235 87 245 0 6 4 18 10 28 5 9 25 61 45 114 19 53 39 107 44
120 5 13 24 61 41 108 30 81 73 192 90 235 4 11 13 36 20 55 10 30 43 116 70
185 11 27 90 238 135 360 20 55 46 119 56 142 10 24 19 47 19 53 0 5 6 24 14
42 8 18 24 60 36 93 12 33 25 69 30 80 27 69 60 155 70 185 10 30 41 111 70
185 4 11 17 41 29 67 12 26 21 51 21 54 0 3 6 20 14 37 8 18 21 52 29 77 16
48 41 116 62 165 6 17 18 46 25 65 6 19 16 44 20 55 4 11 24 61 43 110 20 50
48 125 63 168 15 43 31 80 35 83 5 3 9 16 9 30 0 13 5 24 10 24 6 0 10 8 10
18 0 9 16 57 35 106 19 49 35 93 35 98 0 4 8 27 19 51 10 23 26 62 36 87 30
78 37 95 46 112 5 10 9 26 9 36 0 10 4 22 8 27 5 6 15 30 22 55 8 25 20 56 27
70 7 14 13 31 13 38 0 7 4 20 9 30 13 25 42 97 61 152 7 19 19 49 25 65 7 17
18 46 25 65 7 19 16 44 20 55 4 11 15 40 25 65 9 25 21 53 26 62 5 10 9 25 9
33 0 8 4 23 9 33 12 21 34 76 51 122 15 44 25 68 38 100 6 14 27 70 47 125 20
55 41 110 47 122 6 13 9 25 6 28 -8 8 -687 10 -2532 7z m874 -947 c24 -2 79
-9 165 -20 146 -19 198 -34 190 -54 -4 -9 -13 -36 -21 -61 -8 -25 -19 -55 -25
-67 -22 -53 -66 -168 -99 -258 -12 -33 -37 -98 -55 -145 -19 -47 -46 -119 -61
-160 -15 -41 -31 -79 -35 -84 -5 -6 -29 -5 -61 2 -131 28 -192 33 -368 34
-193 0 -221 -4 -309 -46 -79 -38 -125 -100 -137 -188 -10 -71 11 -127 68 -180
28 -27 58 -48 67 -48 9 0 21 -4 27 -9 13 -13 209 -76 279 -90 33 -7 76 -16 95
-21 19 -5 54 -11 78 -15 23 -4 42 -8 42 -11 0 -11 -64 -188 -90 -249 -5 -11
-16 -42 -26 -70 -9 -27 -21 -54 -26 -59 -4 -6 -8 -20 -8 -33 0 -13 -4 -23 -10
-23 -5 0 -10 -6 -10 -13 0 -12 -32 -99 -115 -312 -13 -33 -26 -68 -29 -77 -6
-21 -28 -22 -88 -8 -349 83 -523 136 -674 205 -258 118 -459 340 -512 565 -6
25 -17 70 -24 100 -17 76 -17 399 1 465 58 219 138 374 262 509 98 107 276
228 424 287 54 21 142 50 161 53 11 2 26 6 32 10 38 23 291 62 472 72 69 3
127 8 130 11 4 4 218 -5 290 -12z m-1265 -2689 c49 -24 106 -51 125 -59 19 -8
55 -24 80 -35 44 -20 227 -83 285 -98 17 -4 33 -8 38 -9 4 -2 11 -3 15 -4 5 0
-18 -67 -50 -148 -32 -80 -58 -150 -58 -155 0 -4 -9 -27 -19 -51 -11 -23 -28
-67 -39 -97 -11 -30 -41 -109 -67 -175 -26 -66 -49 -128 -52 -137 -4 -15 -13
-17 -47 -13 -22 3 -52 9 -66 14 -14 5 -59 19 -100 31 -102 30 -221 69 -245 80
-11 5 -45 18 -75 28 -30 11 -76 30 -102 41 l-47 21 21 53 c11 28 32 81 45 117
14 36 29 74 33 85 4 11 14 36 20 55 12 32 26 68 51 125 4 11 15 43 24 70 14
44 79 218 105 283 5 12 15 22 22 22 7 0 53 -20 103 -44z"/>
</g>
</svg>
